<?xml version="1.0" standalone="no"?>
<!DOCTYPE svg PUBLIC "-//W3C//DTD SVG 20010904//EN"
 "http://www.w3.org/TR/2001/REC-SVG-20010904/DTD/svg10.dtd">
<svg version="1.0" xmlns="http://www.w3.org/2000/svg"
 width="1920.000000pt" height="1920.000000pt" viewBox="0 0 1920.000000 1920.000000"
 preserveAspectRatio="xMidYMid meet">

<g transform="translate(0.000000,1920.000000) scale(0.100000,-0.100000)"
fill="#000000" stroke="none">
<path d="M10645 16016 c-91 -29 -142 -62 -220 -140 -92 -92 -149 -194 -186
-331 -30 -108 -32 -335 -5 -440 85 -328 341 -541 597 -495 227 41 405 248 465
541 20 100 15 299 -11 394 -25 90 -97 233 -151 299 -97 118 -237 187 -378 185
-39 0 -89 -6 -111 -13z"/>
<path d="M11915 16021 c-104 -27 -216 -116 -279 -220 -163 -271 -128 -656 78
-865 174 -176 406 -176 582 -1 69 70 132 184 161 295 24 90 23 292 -1 379 -52
189 -169 339 -306 393 -59 23 -182 33 -235 19z"/>
<path d="M13070 15674 c-194 -53 -330 -271 -330 -529 0 -276 148 -493 366
-537 44 -9 67 -8 122 6 244 60 393 369 327 679 -57 268 -275 439 -485 381z"/>
<path d="M14038 14926 c-217 -59 -321 -378 -202 -623 62 -129 173 -202 289
-190 70 7 121 34 178 96 125 133 152 347 68 527 -69 147 -205 225 -333 190z"/>
<path d="M11727 14435 c-174 -28 -318 -79 -460 -162 -95 -56 -253 -206 -316
-301 -210 -313 -304 -778 -236 -1167 22 -127 95 -337 170 -486 139 -278 271
-463 750 -1049 520 -635 671 -941 691 -1395 20 -449 -115 -860 -414 -1258
-106 -141 -169 -214 -399 -459 -215 -229 -297 -328 -403 -489 -164 -248 -290
-545 -351 -829 -31 -141 -33 -447 -5 -585 111 -548 492 -984 1005 -1149 176
-57 259 -71 416 -70 154 1 231 17 368 74 219 91 445 312 646 631 151 241 579
1093 690 1373 222 562 484 1469 625 2171 228 1128 263 1820 131 2606 -71 422
-171 747 -329 1074 -220 454 -503 781 -897 1039 -301 195 -740 362 -1116 422
-138 22 -454 27 -566 9z"/>
<path d="M7120 14163 c-14 -3 -53 -18 -88 -34 -91 -41 -177 -130 -230 -239
-63 -127 -77 -192 -76 -345 0 -120 3 -138 33 -224 39 -114 83 -190 148 -252
67 -64 99 -84 173 -109 237 -80 484 98 567 410 26 98 24 282 -5 383 -81 283
-296 452 -522 410z"/>
<path d="M8331 14154 c-84 -23 -150 -63 -227 -139 -151 -150 -224 -358 -211
-608 11 -215 80 -385 212 -518 127 -128 298 -177 452 -131 459 140 587 895
214 1262 -132 129 -285 176 -440 134z"/>
<path d="M14694 14146 c-196 -91 -234 -430 -66 -593 117 -114 289 -79 369 73
59 114 68 237 24 355 -41 108 -142 189 -236 189 -22 0 -63 -11 -91 -24z"/>
<path d="M5941 13804 c-66 -24 -111 -55 -168 -118 -238 -260 -168 -764 126
-909 57 -28 76 -32 146 -32 66 0 90 5 138 27 177 83 286 298 275 542 -11 215
-113 398 -265 472 -70 35 -185 43 -252 18z"/>
<path d="M5030 13061 c-116 -38 -209 -154 -239 -299 -41 -195 45 -413 191
-486 110 -55 230 -26 325 77 212 233 89 697 -190 713 -34 2 -73 0 -87 -5z"/>
<path d="M7050 12579 c-130 -12 -262 -36 -405 -74 -1207 -316 -1893 -1166
-2099 -2605 -98 -678 -73 -1278 90 -2170 153 -839 428 -1833 688 -2490 74
-186 324 -700 524 -1075 197 -370 370 -607 558 -763 206 -170 412 -240 669
-229 358 16 683 164 951 431 176 177 280 342 363 579 59 169 75 270 75 487 1
212 -7 268 -66 470 -59 204 -142 395 -255 582 -116 194 -198 297 -453 568
-435 462 -610 718 -725 1064 -92 275 -118 604 -70 881 57 323 232 632 649
1145 498 612 611 767 745 1022 178 339 248 661 211 968 -47 386 -170 678 -375
885 -249 252 -629 367 -1075 324z"/>
<path d="M4347 12293 c-209 -72 -264 -427 -92 -599 100 -101 220 -101 320 0
74 74 99 141 99 271 1 91 -2 106 -30 166 -66 140 -180 202 -297 162z"/>
</g>
</svg>
